<svg height="64" viewBox="0 0 64 64" width="64" xmlns="http://www.w3.org/2000/svg"><path d="m30.827 19.223c3.255 0 5.892-2.634 5.892-5.881 0-3.248-2.636-5.879-5.892-5.879-3.255 0-5.893 2.632-5.893 5.879.001 3.247 2.639 5.881 5.893 5.881z"/><path d="m48.78 58.98s-45.806 0-46.974 0c-1.323 0-1.187 1.04-1.187 1.04v1.731s-.12 2.249 2.19 2.249h58.817c2.325 0 2.199-2.197 2.199-2.197v-4.794s-.197-1.516-1.98-1.516h-5.732c-1.965 0-3.589 3.486-7.332 3.486z"/><path d="m53.348 48.358c0 2.922 2.378 5.295 5.308 5.295 2.929 0 5.313-2.374 5.313-5.295 0-2.933-2.384-5.297-5.313-5.297-2.93-.001-5.308 2.364-5.308 5.297z"/><path d="m35.997 38.255c-.351 1.053-1.147 1.943-2.269 2.36l-4.727 1.753 1.744 1.731h7.98l-.005-12.215-2.671 6.297c-.013.03-.037.047-.053.074z"/><path d="m47.458 47.001h-16.5l-3.978-3.884-2.769 1.02c-2.054.735-4.555-.387-5.326-2.428-.454-1.267-.391-2.682.367-3.713-.339-.015-10.007 0-10.007 0-1.608 0-2.915 1.294-2.915 2.898 0 1.607 1.307 2.863 2.915 2.863h9.843l3.903 5.909-20.151 1.619c-1.289.297-2.253 1.451-2.253 2.832 0 1.608 1.3 2.913 2.904 2.913l22.609.003c-.392-.636-.629-1.377-.629-2.177 0-2.302 1.871-4.173 4.173-4.173h9.046l7.331-1.531.407 1.947-7.533 1.573h-9.252c-1.206 0-2.184.977-2.184 2.184 0 1.189.953 2.152 2.14 2.177l17.898.002c2.77-.023 4.992-2.253 4.992-5.013-.001-2.771-2.243-5.022-5.031-5.022z"/><path d="m23.862 42.315c-1.168.508-2.528-.02-3.038-1.185-.514-1.169.018-2.529 1.187-3.04l8.401-3.154 2.596-6.192-1.692-.625-2.207 5.302-6.395 2.355v-6.482l-6.251 6.827-7.074-.007s12.379-13.57 12.766-13.976c.513-.509 1.686-1.353 3.898-1.353h7.949c4.516 0 5.385 4.502 4.461 6.832l-4.157 10.082c-.256.579-.737 1.045-1.338 1.261l-9.106 3.353z"/></svg>